<svg id="Layer_1" data-name="Layer 1" xmlns="http://www.w3.org/2000/svg" viewBox="0 0 517.98 134.75"><defs><style>.cls-1{fill:#fff;}</style></defs><rect x="10" y="9.83" width="497.98" height="115.08"/><path class="cls-1" d="M54.44,85.62a12.74,12.74,0,0,1-5.12-10.09H61.91a4.73,4.73,0,0,0,1.32,3.26,4.82,4.82,0,0,0,5.64.21,2.71,2.71,0,0,0,1-2.26,3.18,3.18,0,0,0-1.75-2.89,29.87,29.87,0,0,0-5.66-2.29,50.51,50.51,0,0,1-6.71-2.68,12.85,12.85,0,0,1-4.46-3.8,10.53,10.53,0,0,1-1.9-6.53,12,12,0,0,1,2.05-7,12.7,12.7,0,0,1,5.66-4.42,21,21,0,0,1,8.19-1.51q7.41,0,11.84,3.46a12.47,12.47,0,0,1,4.72,9.73H69.08A3.8,3.8,0,0,0,67.9,55.9a4.21,4.21,0,0,0-2.86-1,3.09,3.09,0,0,0-2.17.78A2.89,2.89,0,0,0,62,58,2.78,2.78,0,0,0,63,60a8.76,8.76,0,0,0,2.32,1.5c.93.42,2.29,1,4.1,1.6A48.55,48.55,0,0,1,76,65.87a13.64,13.64,0,0,1,4.52,3.79,9.8,9.8,0,0,1,1.9,6.17,12.56,12.56,0,0,1-1.9,6.81,13.08,13.08,0,0,1-5.48,4.76,19.18,19.18,0,0,1-8.46,1.74Q59.2,89.14,54.44,85.62Z"/><path class="cls-1" d="M89.1,56.23a18.9,18.9,0,0,1,7.44-7.65,22.07,22.07,0,0,1,11.08-2.74A21,21,0,0,1,121,50.09a19.29,19.29,0,0,1,7,11.53H115.27a8.27,8.27,0,0,0-7.83-4.94,8.12,8.12,0,0,0-6.54,2.92,11.82,11.82,0,0,0-2.43,7.8,11.88,11.88,0,0,0,2.43,7.86,8.09,8.09,0,0,0,6.54,2.92,8.64,8.64,0,0,0,4.67-1.26,8.5,8.5,0,0,0,3.16-3.68H128a19.32,19.32,0,0,1-7,11.54A21,21,0,0,1,107.62,89a22,22,0,0,1-11.08-2.74,18.81,18.81,0,0,1-7.44-7.64A23.49,23.49,0,0,1,86.48,67.4,23.32,23.32,0,0,1,89.1,56.23Z"/><path class="cls-1" d="M147.29,87.29,150,78.66l1.82-5.78c0-.14.08-.28.14-.51H150.6l-9.32-.12c-.73,0-1.29-.38-1.31-1a2,2,0,0,1,.37-1.14c2.29-3.19,4.6-6.36,6.91-9.54l10.39-14.32a2.21,2.21,0,0,1,.28-.32,23.7,23.7,0,0,0-4-.33,22.31,22.31,0,0,0-11,2.77,20.73,20.73,0,0,0-7.92,7.74,21.72,21.72,0,0,0-2.92,11.23,21.69,21.69,0,0,0,2.92,11.23A20.8,20.8,0,0,0,143,86.34a22.16,22.16,0,0,0,4.26,1.83A1.61,1.61,0,0,1,147.29,87.29Z"/><path class="cls-1" d="M172.78,56.11a20.43,20.43,0,0,0-7.86-7.74,21.49,21.49,0,0,0-4.93-2l.06.19a1.8,1.8,0,0,1-.07.89q-2,6.32-4,12.62c-.22.72-.45,1.44-.7,2.25h.59l10.23,0a2.44,2.44,0,0,1,.81.1,1.2,1.2,0,0,1,.41,1.93c-1,1.41-2.06,2.8-3.09,4.2Q157,78.52,149.66,88.46a3,3,0,0,1-.22.26,23.66,23.66,0,0,0,4.49.42,22,22,0,0,0,11-2.8,20.45,20.45,0,0,0,7.89-7.77,21.87,21.87,0,0,0,2.89-11.23A21.89,21.89,0,0,0,172.78,56.11Z"/><path class="cls-1" d="M190.37,86.34a20.67,20.67,0,0,1-7.92-7.77,21.69,21.69,0,0,1-2.92-11.23,21.72,21.72,0,0,1,2.92-11.23,20.59,20.59,0,0,1,7.92-7.74,23.13,23.13,0,0,1,21.95,0,20.57,20.57,0,0,1,7.86,7.74,23.26,23.26,0,0,1,0,22.46,20.59,20.59,0,0,1-7.89,7.77,22.85,22.85,0,0,1-21.92,0Zm18.09-11.11a11.41,11.41,0,0,0,2.62-7.89,11.51,11.51,0,0,0-2.62-8,10.21,10.21,0,0,0-14.3,0q-2.59,2.93-2.59,8a11.47,11.47,0,0,0,2.59,7.92,10.18,10.18,0,0,0,14.3,0Z"/><path class="cls-1" d="M260.35,46.26v9.4H249V88.72h-11.8V55.66H226v-9.4Z"/><path class="cls-1" d="M276.55,55.72v6.93H290.1v9H276.55v7.65H291.9v9.45H264.74V46.26H291.9v9.46Z"/><path class="cls-1" d="M319.24,88.72l-8.43-15.66h-1.26V88.72H297.74V46.26h18.61A19.32,19.32,0,0,1,325,48a12.55,12.55,0,0,1,5.36,4.88,13.62,13.62,0,0,1,1.8,7,12.57,12.57,0,0,1-2.38,7.61,12.8,12.8,0,0,1-6.95,4.67l9.57,16.56ZM309.55,65h5.84A5.06,5.06,0,0,0,319,63.85a4.33,4.33,0,0,0,1.21-3.31A4.2,4.2,0,0,0,319,57.32a5,5,0,0,0-3.58-1.18h-5.84Z"/><path class="cls-1" d="M387.06,46.26V88.72H375.25v-17H360.86v17h-11.8V46.26h11.8v16h14.39v-16Z"/><path class="cls-1" d="M405.36,46.26V70.9a8,8,0,0,0,1.6,5.3,6,6,0,0,0,4.85,1.86,6.19,6.19,0,0,0,4.91-1.89,7.78,7.78,0,0,0,1.65-5.27V46.26h11.81V70.9a19.11,19.11,0,0,1-2.47,10A15.84,15.84,0,0,1,421,87.07a21.2,21.2,0,0,1-9.42,2.07,20.09,20.09,0,0,1-9.25-2.07,15.14,15.14,0,0,1-6.38-6.18,20,20,0,0,1-2.32-10V46.26Z"/><path class="cls-1" d="M468.66,46.26v9.4H457.34V88.72H445.53V55.66h-11.2v-9.4Z"/></svg>